HIERARCHY
ROOT hip
{
  OFFSET 0 0 0
  CHANNELS 6 Xposition Yposition Zposition Zrotation Yrotation Xrotation
  JOINT abdomen
  {
    OFFSET 0 20.6881 -0.73152
    CHANNELS 3 Zrotation Xrotation Yrotation
    JOINT chest
    {
      OFFSET 0 11.7043 -0.48768
      CHANNELS 3 Zrotation Xrotation Yrotation
      JOINT neck
      {
        OFFSET 0 22.1894 -2.19456
        CHANNELS 3 Zrotation Xrotation Yrotation
        JOINT head
        {
          OFFSET -0.24384 7.07133 1.2192
          CHANNELS 3 Zrotation Xrotation Yrotation
          JOINT leftEye
          {
            OFFSET 4.14528 8.04674 8.04672
            CHANNELS 3 Zrotation Xrotation Yrotation
            End Site
            {
              OFFSET 1 0 0
            }
          }
          JOINT rightEye
          {
            OFFSET -3.6576 8.04674 8.04672
            CHANNELS 3 Zrotation Xrotation Yrotation
            End Site
            {
              OFFSET 1 0 0
            }
          }
        }
      }
      JOINT rCollar
      {
        OFFSET -2.68224 19.2634 -4.8768
        CHANNELS 3 Zrotation Xrotation Yrotation
        JOINT rShldr
        {
          OFFSET -8.77824 -1.95073 1.46304
          CHANNELS 3 Zrotation Xrotation Yrotation
          JOINT rForeArm
          {
            OFFSET -28.1742 -1.7115 0.48768
            CHANNELS 3 Zrotation Xrotation Yrotation
            JOINT rHand
            {
              OFFSET -22.5879 0.773209 7.07136
              CHANNELS 3 Zrotation Xrotation Yrotation
              JOINT rThumb1
              {
                OFFSET -1.2192 -0.487915 3.41376
                CHANNELS 3 Zrotation Xrotation Yrotation
                JOINT rThumb2
                {
                  OFFSET -3.37035 -0.52449 3.41376
                  CHANNELS 3 Zrotation Xrotation Yrotation
                  End Site
                  {
                    OFFSET -1.78271 -1.18214 1.43049
                  }
                }
              }
              JOINT rIndex1
              {
                OFFSET -7.75947 0.938293 5.60832
                CHANNELS 3 Zrotation Xrotation Yrotation
                JOINT rIndex2
                {
                  OFFSET -2.54057 -0.884171 1.56538
                  CHANNELS 3 Zrotation Xrotation Yrotation
                  End Site
                  {
                    OFFSET -1.62519 -0.234802 1.16502
                  }
                }
              }
              JOINT rMid1
              {
                OFFSET -8.24714 1.18213 3.41376
                CHANNELS 3 Zrotation Xrotation Yrotation
                JOINT rMid2
                {
                  OFFSET -3.10165 -0.590103 1.0647
                  CHANNELS 3 Zrotation Xrotation Yrotation
                  End Site
                  {
                    OFFSET -2.48547 -0.328903 0.83742
                  }
                }
              }
              JOINT rRing1
              {
                OFFSET -8.82822 0.546677 1.51678
                CHANNELS 3 Zrotation Xrotation Yrotation
                JOINT rRing2
                {
                  OFFSET -2.60934 -0.819778 -0.0198488
                  CHANNELS 3 Zrotation Xrotation Yrotation
                  End Site
                  {
                    OFFSET -2.33842 -0.294052 0.168128
                  }
                }
              }
              JOINT rPinky1
              {
                OFFSET -8.27202 -0.0477905 -0.4584
                CHANNELS 3 Zrotation Xrotation Yrotation
                JOINT rPinky2
                {
                  OFFSET -1.82734 -0.647385 -0.700984
                  CHANNELS 3 Zrotation Xrotation Yrotation
                  End Site
                  {
                    OFFSET -1.69225 -0.51767 -0.607171
                  }
                }
              }
            }
          }
        }
      }
      JOINT lCollar
      {
        OFFSET 2.68224 19.2634 -4.8768
        CHANNELS 3 Zrotation Xrotation Yrotation
        JOINT lShldr
        {
          OFFSET 8.77824 -1.95073 1.46304
          CHANNELS 3 Zrotation Xrotation Yrotation
          JOINT lForeArm
          {
            OFFSET 28.1742 -1.7115 0.48768
            CHANNELS 3 Zrotation Xrotation Yrotation
            JOINT lHand
            {
              OFFSET 22.5879 0.773209 7.07136
              CHANNELS 3 Zrotation Xrotation Yrotation
              JOINT lThumb1
              {
                OFFSET 1.2192 -0.487915 3.41376
                CHANNELS 3 Zrotation Xrotation Yrotation
                JOINT lThumb2
                {
                  OFFSET 3.37035 -0.52449 3.41376
                  CHANNELS 3 Zrotation Xrotation Yrotation
                  End Site
                  {
                    OFFSET 1.78271 -1.18214 1.43049
                  }
                }
              }
              JOINT lIndex1
              {
                OFFSET 7.75947 0.938293 5.60832
                CHANNELS 3 Zrotation Xrotation Yrotation
                JOINT lIndex2
                {
                  OFFSET 2.54057 -0.884171 1.56538
                  CHANNELS 3 Zrotation Xrotation Yrotation
                  End Site
                  {
                    OFFSET 1.62519 -0.234802 1.16502
                  }
                }
              }
              JOINT lMid1
              {
                OFFSET 8.24714 1.18213 3.41376
                CHANNELS 3 Zrotation Xrotation Yrotation
                JOINT lMid2
                {
                  OFFSET 3.10165 -0.590103 1.0647
                  CHANNELS 3 Zrotation Xrotation Yrotation
                  End Site
                  {
                    OFFSET 2.48547 -0.328903 0.83742
                  }
                }
              }
              JOINT lRing1
              {
                OFFSET 8.82822 0.546677 1.51678
                CHANNELS 3 Zrotation Xrotation Yrotation
                JOINT lRing2
                {
                  OFFSET 2.60934 -0.819778 -0.0198488
                  CHANNELS 3 Zrotation Xrotation Yrotation
                  End Site
                  {
                    OFFSET 2.33842 -0.294052 0.168128
                  }
                }
              }
              JOINT lPinky1
              {
                OFFSET 8.27202 -0.0477905 -0.4584
                CHANNELS 3 Zrotation Xrotation Yrotation
                JOINT lPinky2
                {
                  OFFSET 1.82734 -0.647385 -0.700984
                  CHANNELS 3 Zrotation Xrotation Yrotation
                  End Site
                  {
                    OFFSET 1.69225 -0.51767 -0.607171
                  }
                }
              }
            }
          }
        }
      }
    }
  }
  JOINT rButtock
  {
    OFFSET -8.77824 4.35084 1.2192
    CHANNELS 3 Zrotation Xrotation Yrotation
    JOINT rThigh
    {
      OFFSET 0 -1.70687 -2.19456
      CHANNELS 3 Zrotation Xrotation Yrotation
      JOINT rShin
      {
        OFFSET 0 -36.8199 0.73152
        CHANNELS 3 Zrotation Xrotation Yrotation
        JOINT rFoot
        {
          OFFSET 0.73152 -45.1104 -5.12064
          CHANNELS 3 Zrotation Xrotation Yrotation
          End Site
          {
            OFFSET -1.1221 -3.69964 12.103
          }
        }
      }
    }
  }
  JOINT lButtock
  {
    OFFSET 8.77824 4.35084 1.2192
    CHANNELS 3 Zrotation Xrotation Yrotation
    JOINT lThigh
    {
      OFFSET 0 -1.70687 -2.19456
      CHANNELS 3 Zrotation Xrotation Yrotation
      JOINT lShin
      {
        OFFSET 0 -36.8199 0.73152
        CHANNELS 3 Zrotation Xrotation Yrotation
        JOINT lFoot
        {
          OFFSET -0.73152 -45.1104 -5.12064
          CHANNELS 3 Zrotation Xrotation Yrotation
          End Site
          {
            OFFSET 1.1221 -3.69964 12.103
          }
        }
      }
    }
  }
}
MOTION
Frames:	7
Frame Time:	0.03333
0.0 0.0 0.0 0.0 0.0 0.0 0.0 0.0 0.0 0.0 0.0 0.0 0.0 0.0 0.0 0.0 0.0 0.0 0.0 0.0 0.0 0.0 0.0 0.0 0.0 0.0 0.0 0.0 0.0 0.0 0.0 0.0 0.0 0.0 0.0 0.0 0.0 0.0 0.0 0.0 0.0 0.0 0.0 0.0 0.0 0.0 0.0 0.0 0.0 0.0 0.0 0.0 0.0 0.0 0.0 0.0 0.0 0.0 0.0 0.0 0.0 0.0 0.0 0.0 0.0 0.0 0.0 0.0 0.0 0.0 0.0 0.0 0.0 0.0 0.0 0.0 0.0 0.0 0.0 0.0 0.0 0.0 0.0 0.0 0.0 0.0 0.0 0.0 0.0 0.0 0.0 0.0 0.0 0.0 0.0 0.0 0.0 0.0 0.0 0.0 0.0 0.0 0.0 0.0 0.0 0.0 0.0 0.0 0.0 0.0 0.0 0.0 0.0 0.0 0.0 0.0 0.0 0.0 0.0 0.0 0.0 0.0 0.0 0.0 0.0 0.0 0.0 0.0 0.0 0.0 0.0 0.0
2.6509 66.43820000000001 0.4328 -8.452506 30.150003 5.864809 3.884569 9.404331 0.0 5.123261 -8.021874 0.425998 11.824153 18.145403 90.600452 -34.232271 7.791482 -71.348252 0.000307 -0.0 -0.000515 0.000307 -0.0 -0.000515 -85.537496 68.182655 88.688919 -97.911333 4.829365 127.768949 112.558235 -29.062987 -85.179428 -42.111146 37.134157 22.180553 -7.75783 7.439341 1.682424 -104.160764 4.421868 95.06725 -162.920349 -37.928983 122.6295 -169.778668 -35.336198 117.381339 -4.789628 12.797178 3.006883 -168.853717 -22.172679 144.328243 -145.111501 -0.626623 -178.930101 12.0777 33.171038 -5.245689 -75.779438 -51.669477 -74.248996 -9.552463 -25.837585 -12.347803 143.156889 39.097536 -147.584969 1.576203 17.469878 68.876973 -162.821835 11.270049 92.606288 16.043586 22.361902 -1.516566 165.648409 -3.321098 -89.68488 -17.183236 -58.115379 -19.30056 166.821064 -43.973787 -122.062488 178.592586 -47.625478 -112.627412 156.685972 5.002505 -141.076472 4.821856 20.740781 -4.656467 0.007466 -0.872293 0.274208 -9.255956 13.174832 -1.730588 144.859675 11.078991 141.544228 151.728677 24.540832 144.273765 179.991389 75.748301 0.005891 152.651861 61.144573 -67.823806 -74.338766 -6.025963 -90.655845 66.492135 -0.113157 -157.18547 179.99438 75.748587 0.005798 -159.013527 4.793209 82.595154 89.600193 20.184154 171.774744 -124.230239 63.210623 -154.364472
3.9627999999999997 66.5542 0.7092 -6.666896 31.53165 6.446322 0.851177 9.853936 11.17547 4.191315 -8.924312 -11.085086 7.764386 27.695622 154.571979 -18.821153 41.244372 -132.08178 0.003029 0.0 0.003087 0.002814 -0.0 -0.000989 -157.797692 -22.115582 165.466769 -47.724796 -23.476234 18.665779 8.978515 11.135788 -137.93342 -149.927902 28.033057 130.378405 -0.543597 0.536362 0.085985 5.352993 -6.974247 -3.924532 -46.208011 39.653161 36.318256 -159.943136 -4.081761 111.758368 -6.646828 17.108801 4.325748 2.732086 1.660625 0.210902 -68.220364 -72.088896 -85.015478 -79.216839 83.073648 97.066185 -146.226449 15.470298 -142.747699 -162.476354 55.852286 -146.670126 0.048361 0.29248 -0.064717 82.019412 -0.324695 -62.010123 -163.403385 -56.495264 114.551172 12.209235 11.944986 0.786812 5.433571 5.264993 -1.077849 84.598801 19.681315 -78.435471 46.208814 39.652847 -36.31817 2.430525 13.273757 -0.419992 0.573044 1.64795 -0.322919 25.192613 49.216179 -20.685788 145.121908 2.055609 179.772766 -11.908017 35.713883 4.952264 160.651664 67.876892 151.113358 -42.321594 79.902544 6.967493 179.985988 75.750856 0.009587 154.158536 55.784166 30.356573 36.54123 73.710171 63.927077 -19.172236 84.125832 -41.731173 -179.970863 75.750854 -0.023974 -160.700649 7.908956 -0.0 -21.945352 87.583969 102.30326 -147.359268 6.874789 39.170063
5.4909 66.61 1.1571 -4.514136 32.774069 7.219108 -1.251078 5.926254 -168.056934 -4.417822 4.426712 167.362265 11.569256 22.487836 116.715403 -33.925816 23.729619 -95.065241 0.002385 -0.0 -1.2e-05 -0.003603 -0.0 0.000636 -150.037185 21.979082 155.125193 -121.399531 28.781628 82.736198 77.008269 -57.284585 -70.357002 -126.815209 47.76164 107.078966 -173.976767 -11.643135 89.882472 -86.861007 10.568327 31.675096 -103.64795 36.536774 87.624942 8.25924 -3.522485 -6.602479 -161.15339 -8.160437 143.465976 -163.78256 -6.245631 143.113124 -0.061051 -3.510163 -1.105324 11.802016 -40.151721 -4.902776 -135.069338 -13.38389 -132.469389 -160.491627 52.814419 -147.003593 155.417176 -2.951377 -161.718737 -2.485451 -25.482614 78.051716 -6.798139 -16.885522 115.04309 175.813216 -1.626278 -142.656934 161.773344 0.529322 -89.181039 148.002994 1.30793 -73.81956 -60.463978 -70.52262 -15.712148 84.004226 51.692194 -70.464967 154.14176 11.634568 -139.429081 5.034667 21.264397 -4.805805 145.110908 -0.668679 178.919182 145.704031 -49.240168 168.096847 85.999868 -50.500222 84.371757 8.246288 -23.781174 11.214779 179.999605 75.75061 0.000407 157.746156 47.224252 -180.0 67.660154 -68.581978 -75.886474 82.415735 -50.634311 -28.897672 -0.000451 -0.000968 -0.000451 33.638659 -61.84188 110.743145 93.855863 18.533256 53.163659 -67.537293 -46.591281 -159.141884
7.0062 66.73949999999999 1.6743000000000001 -2.085309 33.716449 7.810748 -5.856237 11.234054 27.766048 2.740287 -10.518067 -28.275717 -9.3063 20.477089 -82.56482 39.709241 7.590564 93.858153 0.001052 -0.0 -0.001995 0.001052 -0.0 -0.001995 0.118225 -0.713979 -0.15846 -24.573542 -63.590255 -95.117342 -114.971297 63.092605 -139.87447 -7.978648 -55.525574 -12.738374 -2.608053 2.554776 0.456899 -136.989261 -39.886742 117.251662 -32.409213 33.725845 24.307802 -0.720698 11.627235 0.776762 -160.67392 -6.667719 143.24518 143.614639 -74.418618 111.816565 -0.022682 -1.725121 -0.542662 -155.286169 -1.303907 172.009914 5.661795 16.872699 5.08525 -43.296409 -50.893521 -43.20316 143.620421 38.233312 -148.080403 -167.256114 -6.034409 115.438718 -171.269224 6.403175 -63.209118 172.074646 8.378181 -141.159038 1.193612 1.174213 -0.195998 3.112064 3.890801 -3.372854 -6.229583 -10.728134 3.098716 5.724514 23.271914 -6.60047 -7.431475 -23.301224 2.924665 171.166392 -28.544996 -144.214666 75.672608 -72.116239 92.828908 79.227401 83.261146 -97.070717 156.866446 55.541439 150.328447 76.743123 -53.237685 75.636428 -5.3e-05 -0.000975 6.8e-05 -17.63681 -32.033977 -180.0 -123.756876 -77.829399 162.199076 0.87118 -6.129033 -104.61256 179.995036 75.747955 0.005122 -165.096096 11.376103 -101.958724 -85.755015 -29.098955 8.514231 -156.794381 74.261077 -120.394998
8.462 66.8605 2.3857 -0.002297 34.970128 8.308151 -6.383622 7.811119 -163.801796 -4.468365 5.489031 162.484168 -6.784486 26.079146 -119.53272 36.14005 29.259298 123.459545 0.00195 0.0 0.000105 0.00195 0.0 0.000105 -28.501231 57.372221 30.874439 -98.419183 -1.602831 142.278024 0.82194 -7.651723 -129.14463 -156.590347 18.184206 136.323503 -3.227591 3.155442 0.582498 -37.129814 25.116012 34.633545 -140.164968 2.327256 115.879262 -63.597391 56.77524 45.586139 -160.573689 -6.35966 143.196782 -167.438174 -17.359518 143.827338 -0.006275 3.47362 1.093293 4.023637 41.429145 7.694198 -29.62841 -40.969331 -28.616618 2.112297 -3.033964 -1.318698 142.973301 39.431229 -147.389169 4.892029 19.53574 67.936025 -6.848645 -16.805205 114.528641 173.906074 0.873824 -142.228269 -81.972135 -50.09098 -32.722647 20.916486 -17.972163 20.722679 140.164248 2.326563 -115.878472 63.597589 56.774563 -45.58666 82.840574 61.111771 -74.532207 -16.12331 -37.022484 0.6438 0.021091 -1.725029 0.5433 155.975352 -13.749334 -173.485535 77.070653 -51.584539 75.530279 22.575896 -39.813105 24.63369 179.994789 75.750468 0.003566 160.431957 36.383243 30.93147 111.2483 77.731699 -134.43214 117.734708 -12.68063 -28.645082 179.838986 75.74901 0.1241 -169.646277 13.394162 120.597173 87.136603 -11.267377 171.426219 142.817936 -19.979309 -150.080405
9.892199999999999 66.9504 3.2767999999999997 1.032223 36.348342 8.325074 -6.452362 11.771214 -69.493541 8.610619 1.534306 67.459408 0.768743 9.255672 9.38507 -1.806758 -27.41462 1.847328 -0.001731 0.0 -0.00186 -0.001731 0.0 -0.00186 0.070832 -0.427828 -0.094742 -100.689852 -7.11922 -162.685518 19.268719 5.330214 -128.911556 -148.012983 33.076128 127.148026 -171.704799 -9.388921 89.949105 -171.44354 -8.96105 90.367206 -148.884575 -12.609817 120.245689 11.844453 -2.226058 -10.06979 2.101416 -6.305211 -1.081356 -10.239729 31.486401 8.169059 -145.119713 0.226411 -179.199899 -155.552972 1.335286 -179.395403 -109.12626 -42.334468 -107.213423 -159.410529 52.808854 -147.806388 -0.000736 0.000113 0.000487 123.20464 13.340951 -72.56065 8.260178 11.321635 112.634511 177.163294 -11.597683 -143.644576 78.029984 38.689538 -42.41313 -34.33601 -32.005845 -19.40672 10.570475 15.01367 -6.86513 14.532579 28.468221 -10.079942 167.298461 -27.767503 -145.26012 42.537893 58.276806 -36.561479 145.098226 -1.520812 178.649575 151.709776 -28.043408 174.714614 -4.44054 12.865097 -4.021056 128.975558 -29.162006 127.048168 179.994182 75.749936 0.003981 163.87405 29.221501 -96.696167 -106.613349 -22.803023 9.69534 149.580103 -25.235448 -70.155186 179.978552 75.750898 0.017648 -170.745763 17.30616 -2.598077 -84.587125 67.509501 -37.001406 -15.579361 35.313115 149.659224
